<svg xmlns="http://www.w3.org/2000/svg" xmlns:xlink="http://www.w3.org/1999/xlink" version="1.1" x="0px" y="0px" viewBox="-282.4 400.8 44.9 51.375" style="enable-background:new -282.4 400.8 44.9 41.1;" xml:space="preserve"><title>Seed</title><desc>Created with Sketch.</desc><g><g transform="translate(-406.000000, -285.000000)"><g><path d="M130.8,705.6c-3.2,3.2-10.2,15.2-5.7,19.8c0,0,0,0,0,0c1,1,2.4,1.5,4.2,1.5c1.8,0,4-0.5,6.5-1.5c3.5-1.4,7.3-3.7,9.1-5.6     c3.9-3.9,3.9-10.2,0-14.1C141,701.7,134.7,701.7,130.8,705.6z M142.1,716.9c-1.3,1.3-4.4,3.3-7.8,4.7c-3.8,1.5-5.8,1.4-6.3,0.9h0     c-1.4-1.4,1.8-10.3,5.7-14.1c1.2-1.2,2.7-1.8,4.2-1.8c1.1,0,2.2,0.3,3.2,0.9c-0.9,0.1-2.1,0.7-3.2,1.7c-1.6,1.6-2.2,3.5-1.4,4.2     c0.8,0.8,2.7,0.1,4.2-1.4c1.1-1.1,1.7-2.4,1.7-3.3C144.4,711.2,144.3,714.7,142.1,716.9z"/><path d="M167,697.9c-1.4-3.5-3.7-7.3-5.6-9.1c-3.9-3.9-10.2-3.9-14.1,0c-1.9,1.9-2.9,4.4-2.9,7.1c0,2.7,1,5.2,2.9,7.1     c2.4,2.4,10.1,7.2,15.6,7.2c1.7,0,3.1-0.4,4.2-1.5C169,706.6,169,702.9,167,697.9z M164.2,705.7L164.2,705.7     c-1.4,1.4-10.3-1.8-14.1-5.7c-1.1-1.1-1.8-2.6-1.8-4.2c0-1.1,0.3-2.1,0.8-3c0.3,0.7,0.8,1.4,1.5,2.1c1.6,1.6,3.5,2.2,4.2,1.4     c0.8-0.8,0.1-2.7-1.4-4.2c-0.7-0.7-1.4-1.2-2.1-1.4c0.9-0.5,1.9-0.8,3-0.8c1.5,0,3.1,0.6,4.2,1.8c1.3,1.3,3.3,4.4,4.7,7.8     C164.8,703.2,164.7,705.3,164.2,705.7z"/><path d="M137.7,696.6c1.2-1.2,1.2-3.3,0-4.5c-1.2-1.2-3.3-1.2-4.5,0s-3.5,5.5-2.3,6.8S136.4,697.8,137.7,696.6z"/><path d="M156.3,715.9c-1.2,1.2-1.2,3.3,0,4.5s5.5,3.5,6.8,2.3s-1-5.5-2.3-6.8S157.5,714.7,156.3,715.9z"/></g></g></g><text x="-282.4" y="456.90000000000003" fill="#000000" font-size="5px" font-weight="bold" font-family="'Helvetica Neue', Helvetica, Arial-Unicode, Arial, Sans-serif">Created by Alex Bu</text><text x="-282.4" y="461.90000000000003" fill="#000000" font-size="5px" font-weight="bold" font-family="'Helvetica Neue', Helvetica, Arial-Unicode, Arial, Sans-serif">from the Noun Project</text></svg>